<svg width="24" height="24" viewBox="0 0 24 24" fill="none" xmlns="http://www.w3.org/2000/svg">
<path d="M17.9855 20.4914L18.2488 19.7892C18.0229 19.7045 17.7701 19.7336 17.5693 19.8674L17.9855 20.4914ZM22.0004 21.997L21.7371 22.6993C22.0125 22.8025 22.3228 22.7353 22.5308 22.5274C22.7387 22.3194 22.806 22.0091 22.7027 21.7337L22.0004 21.997ZM20.4944 17.9809L19.8702 17.5652C19.7365 17.7659 19.7075 18.0185 19.7922 18.2443L20.4944 17.9809ZM2.75 11C2.75 6.44365 6.44365 2.75 11 2.75V1.25C5.61522 1.25 1.25 5.61522 1.25 11H2.75ZM2.75 12.9983V11H1.25V12.9983H2.75ZM11 21.2483C6.44365 21.2483 2.75 17.5547 2.75 12.9983H1.25C1.25 18.3831 5.61522 22.7483 11 22.7483V21.2483ZM12.9983 21.2483H11V22.7483H12.9983V21.2483ZM17.5693 19.8674C16.2612 20.7398 14.6903 21.2483 12.9983 21.2483V22.7483C14.9956 22.7483 16.8547 22.147 18.4016 21.1154L17.5693 19.8674ZM17.7221 21.1937L21.7371 22.6993L22.2638 21.2948L18.2488 19.7892L17.7221 21.1937ZM22.7027 21.7337L21.1967 17.7176L19.7922 18.2443L21.2982 22.2604L22.7027 21.7337ZM21.2483 12.9983C21.2483 14.6885 20.7409 16.2579 19.8702 17.5652L21.1186 18.3967C22.1483 16.8507 22.7483 14.9935 22.7483 12.9983H21.2483ZM21.2483 11V12.9983H22.7483V11H21.2483ZM12.9983 2.75C17.5547 2.75 21.2483 6.44365 21.2483 11H22.7483C22.7483 5.61522 18.3831 1.25 12.9983 1.25V2.75ZM11 2.75H12.9983V1.25H11V2.75Z" fill="#111111"/>
<circle cx="6.9999" cy="11.9999" r="1.2499" fill="#111111"/>
<circle cx="11.9999" cy="11.9999" r="1.2499" fill="#111111"/>
<circle cx="16.9999" cy="11.9999" r="1.2499" fill="#111111"/>
</svg>
