<svg width="16" height="16" viewBox="0 0 16 16" fill="none" xmlns="http://www.w3.org/2000/svg">
<path fill-rule="evenodd" clip-rule="evenodd" d="M1.46484 7.05335C1.46484 3.44509 4.38992 0.52002 7.99818 0.52002C11.6064 0.52002 14.5315 3.44509 14.5315 7.05335C14.5315 9.32008 13.0639 11.4262 11.6127 12.9177C10.8765 13.6744 10.1193 14.2989 9.50063 14.7372C9.19177 14.9559 8.91118 15.1327 8.67987 15.2573C8.56474 15.3193 8.45444 15.3724 8.35416 15.4114C8.26882 15.4446 8.13695 15.4896 7.99818 15.4896C7.8594 15.4896 7.72754 15.4446 7.64219 15.4114C7.54191 15.3724 7.43161 15.3193 7.31648 15.2573C7.08518 15.1327 6.80459 14.9559 6.49572 14.7372C5.87703 14.2989 5.11985 13.6744 4.38367 12.9177C2.93247 11.4262 1.46484 9.32008 1.46484 7.05335ZM5.58782 6.7362C5.58782 5.405 6.66697 4.32584 7.99818 4.32584C9.32938 4.32584 10.4085 5.405 10.4085 6.7362C10.4085 8.0674 9.32938 9.14656 7.99818 9.14656C6.66697 9.14656 5.58782 8.0674 5.58782 6.7362Z" fill="black"/>
</svg>
