<svg width="25" height="24" viewBox="0 0 25 24" fill="none" xmlns="http://www.w3.org/2000/svg">
<path d="M3.25836 6.20174C2.8521 5.21134 2.73211 4.02862 2.7024 3.21894C2.68615 2.77609 3.15529 2.51285 3.54398 2.72569C3.86782 2.90301 4.27338 3.12293 4.73906 3.371C6.22543 4.16276 7.38147 4.59309 8.0763 4.81224C8.33634 4.89425 8.40052 5.27984 8.17638 5.43511C7.57632 5.85079 6.69944 6.50892 6.21871 7.10719C5.8848 7.52275 5.6161 7.91288 5.40946 8.24085C5.15704 8.64147 4.54474 8.67275 4.30604 8.26381C3.97006 7.68822 3.55455 6.92381 3.25836 6.20174Z" fill="#5053E9" stroke="#5053E9" stroke-width="1.25" stroke-linejoin="round"/>
<path d="M22.2416 6.20174C22.6479 5.21135 22.7679 4.02862 22.7976 3.21895C22.8139 2.77609 22.3447 2.51285 21.956 2.72569C21.6322 2.90301 21.2266 3.12294 20.7609 3.371C19.2746 4.16276 18.1185 4.5931 17.4237 4.81224C17.1637 4.89426 17.0995 5.27985 17.3236 5.43511C17.9237 5.85079 18.8006 6.50892 19.2813 7.1072C19.6152 7.52275 19.8839 7.91287 20.0905 8.24084C20.343 8.64147 20.9553 8.67275 21.194 8.26381C21.5299 7.68822 21.9455 6.92381 22.2416 6.20174Z" fill="#5053E9" stroke="#5053E9" stroke-width="1.25" stroke-linejoin="round"/>
<circle cx="12.75" cy="12" r="9.25" fill="#5053E9" stroke="#5053E9" stroke-width="1.5"/>
<g clip-path="url(#clip0_6753_6451)">
<path fill-rule="evenodd" clip-rule="evenodd" d="M12.6365 7.01117C10.6364 7.1356 9.59127 8.26826 9.5 10.3165H11.5176C11.5429 9.60699 11.9389 9.07659 12.6762 8.99839C13.4 8.92156 14.0867 9.09395 14.2946 9.58878C14.5193 10.1233 14.015 10.7445 13.7752 11.0052C13.3314 11.4887 12.6106 11.8414 12.2369 12.363C11.8707 12.8742 11.8055 13.5467 11.7773 14.3698H13.5556C13.5805 13.8435 13.6155 13.3394 13.855 13.0124C14.2444 12.4809 14.8261 12.2319 15.3135 11.8122C15.7791 11.411 16.269 10.9275 16.3521 10.1792C16.6019 7.93946 14.7736 6.87779 12.6365 7.01117Z" fill="white"/>
<path d="M12.6813 17.3129C13.3013 17.3129 13.804 16.8179 13.804 16.2072C13.804 15.5966 13.3013 15.1016 12.6813 15.1016C12.0612 15.1016 11.5586 15.5966 11.5586 16.2072C11.5586 16.8179 12.0612 17.3129 12.6813 17.3129Z" fill="white"/>
</g>
<defs>
<clipPath id="clip0_6753_6451">
<rect width="11" height="11" fill="white" transform="translate(7 6)"/>
</clipPath>
</defs>
</svg>
