<svg width="24" height="24" viewBox="0 0 24 24" fill="none" xmlns="http://www.w3.org/2000/svg">
<path d="M9.4191 21H4.89474C3.8483 21 3 20.1517 3 19.1053V11.753C3 10.9037 3.37977 10.099 4.03531 9.55912L11.3973 3.49598C11.7471 3.20789 12.252 3.20788 12.6018 3.49596L19.9646 9.55911C20.6202 10.099 21 10.9038 21 11.7531V19.1053C21 20.1517 20.1517 21 19.1053 21H14.5809C14.3251 21 14.1177 20.7926 14.1177 20.5368V15.7063C14.1177 14.5365 13.1693 13.5882 11.9995 13.5882C10.83 13.5882 9.88194 14.5364 9.88201 15.7059L9.88231 20.5368C9.88232 20.7926 9.67493 21 9.4191 21Z" stroke="black" stroke-width="1.5"/>
</svg>
