<svg width="24" height="24" viewBox="0 0 24 24" fill="none" xmlns="http://www.w3.org/2000/svg">
<path d="M16.5 10C17.3284 10 18 9.32848 18 8.50004C18 7.6716 17.3284 7 16.5 7C15.6716 7 15 7.6716 15 8.50004C15 9.32848 15.6716 10 16.5 10Z" fill="#111111" stroke="#111111"/>
<path d="M18.65 2.5H5.35C3.77599 2.5 2.5 3.77599 2.5 5.35V18.65C2.5 20.224 3.77599 21.5 5.35 21.5H18.65C20.224 21.5 21.5 20.224 21.5 18.65V5.35C21.5 3.77599 20.224 2.5 18.65 2.5Z" stroke="#111111" stroke-width="1.5" stroke-linejoin="round"/>
<path d="M6.24807 12.9271L3.16057 16.6321C2.73375 17.1443 2.5 17.7899 2.5 18.4566V18.8498C2.5 20.4238 3.77599 21.6998 5.35 21.6998H18.65C20.224 21.6998 21.5 20.4238 21.5 18.8498V18.6941C21.5 17.8862 21.1571 17.1162 20.5565 16.5757L18.3237 14.5661C17.416 13.7492 16.0503 13.7095 15.0968 14.4724C14.0362 15.3209 12.4917 15.1649 11.6222 14.1215L10.6269 12.9271C9.48751 11.5598 7.38748 11.5598 6.24807 12.9271Z" stroke="#111111" stroke-width="1.5" stroke-linecap="round" stroke-linejoin="round"/>
</svg>
