<svg width="25" height="24" viewBox="0 0 25 24" fill="none" xmlns="http://www.w3.org/2000/svg">
<path fill-rule="evenodd" clip-rule="evenodd" d="M11.25 2C6.27944 2 2.25 6.02943 2.25 11V12.9983C2.25 17.9689 6.27943 21.9983 11.25 21.9983H13.2483C15.0929 21.9983 16.8079 21.4434 18.2355 20.4914L22.2504 21.997L20.7444 17.9809C21.6946 16.5543 22.2483 14.841 22.2483 12.9983V11C22.2483 6.02944 18.2189 2 13.2483 2H11.25Z" fill="#5053E9"/>
<path d="M18.2355 20.4914L18.4988 19.7892C18.2729 19.7045 18.0201 19.7336 17.8193 19.8674L18.2355 20.4914ZM22.2504 21.997L21.9871 22.6993C22.2625 22.8025 22.5728 22.7353 22.7808 22.5274C22.9887 22.3194 23.056 22.0091 22.9527 21.7337L22.2504 21.997ZM20.7444 17.9809L20.1202 17.5652C19.9865 17.7659 19.9575 18.0185 20.0422 18.2443L20.7444 17.9809ZM3 11C3 6.44365 6.69365 2.75 11.25 2.75V1.25C5.86522 1.25 1.5 5.61522 1.5 11H3ZM3 12.9983V11H1.5V12.9983H3ZM11.25 21.2483C6.69365 21.2483 3 17.5547 3 12.9983H1.5C1.5 18.3831 5.86522 22.7483 11.25 22.7483V21.2483ZM13.2483 21.2483H11.25V22.7483H13.2483V21.2483ZM17.8193 19.8674C16.5112 20.7398 14.9403 21.2483 13.2483 21.2483V22.7483C15.2456 22.7483 17.1047 22.147 18.6516 21.1154L17.8193 19.8674ZM17.9721 21.1937L21.9871 22.6993L22.5138 21.2948L18.4988 19.7892L17.9721 21.1937ZM22.9527 21.7337L21.4467 17.7176L20.0422 18.2443L21.5482 22.2604L22.9527 21.7337ZM21.4983 12.9983C21.4983 14.6885 20.9909 16.2579 20.1202 17.5652L21.3686 18.3967C22.3983 16.8507 22.9983 14.9935 22.9983 12.9983H21.4983ZM21.4983 11V12.9983H22.9983V11H21.4983ZM13.2483 2.75C17.8047 2.75 21.4983 6.44365 21.4983 11H22.9983C22.9983 5.61522 18.6331 1.25 13.2483 1.25V2.75ZM11.25 2.75H13.2483V1.25H11.25V2.75Z" fill="#5053E9"/>
<circle cx="7.2499" cy="11.9999" r="1.2499" fill="white"/>
<circle cx="12.2499" cy="11.9999" r="1.2499" fill="white"/>
<circle cx="17.2499" cy="11.9999" r="1.2499" fill="white"/>
</svg>
