<svg width="16" height="16" viewBox="0 0 16 16" fill="none" xmlns="http://www.w3.org/2000/svg">
<path fill-rule="evenodd" clip-rule="evenodd" d="M5.33346 1.18652C5.62802 1.18652 5.8668 1.4253 5.8668 1.71986V2.18652H10.1335V1.71986C10.1335 1.4253 10.3722 1.18652 10.6668 1.18652C10.9613 1.18652 11.2001 1.4253 11.2001 1.71986V2.18652H14.0001C14.2947 2.18652 14.5335 2.4253 14.5335 2.71986V12.8199C14.5335 13.9244 13.638 14.8199 12.5335 14.8199H3.4668C2.36223 14.8199 1.4668 13.9244 1.4668 12.8199V2.71986C1.4668 2.4253 1.70558 2.18652 2.00013 2.18652H4.80013V1.71986C4.80013 1.4253 5.03891 1.18652 5.33346 1.18652ZM10.1335 3.25319V3.71986C10.1335 4.01441 10.3722 4.25319 10.6668 4.25319C10.9613 4.25319 11.2001 4.01441 11.2001 3.71986V3.25319H13.4668V4.85319H2.53346V3.25319H4.80013V3.71986C4.80013 4.01441 5.03891 4.25319 5.33346 4.25319C5.62802 4.25319 5.8668 4.01441 5.8668 3.71986V3.25319H10.1335ZM9.91126 11.4088C9.61671 11.4088 9.37793 11.6476 9.37793 11.9421C9.37793 12.2367 9.61671 12.4754 9.91126 12.4754H11.689C11.9836 12.4754 12.2224 12.2367 12.2224 11.9421C12.2224 11.6476 11.9836 11.4088 11.689 11.4088H9.91126Z" fill="black"/>
</svg>
