<svg width="48" height="48" viewBox="0 0 48 48" fill="none" xmlns="http://www.w3.org/2000/svg">
<rect width="48" height="48" rx="16" fill="white"/>
<rect x="10.1279" y="15.0234" width="20.304" height="17.952" rx="2.4" fill="#9899F9"/>
<path fill-rule="evenodd" clip-rule="evenodd" d="M31.4717 21.6214C31.4717 21.125 31.7273 20.6637 32.1481 20.4005L35.7917 18.1219C35.9799 18.0041 36.2068 17.9302 36.4463 17.9088C36.6858 17.8874 36.9282 17.9193 37.1456 18.0009C37.3629 18.0824 37.5464 18.2103 37.6748 18.3698C37.8033 18.5293 37.8715 18.7139 37.8717 18.9023V29.0512C37.8715 29.2396 37.8033 29.4242 37.6748 29.5837C37.5464 29.7432 37.3629 29.8711 37.1456 29.9526C36.9282 30.0342 36.6858 30.0661 36.4463 30.0447C36.2068 30.0233 35.9799 29.9494 35.7917 29.8316L32.1481 27.553C31.7273 27.2898 31.4717 26.8285 31.4717 26.3321V21.6214Z" fill="#C5C6FD"/>
</svg>
