<svg width="24" height="24" viewBox="0 0 24 24" fill="none" xmlns="http://www.w3.org/2000/svg">
<path d="M23.72 11.5521L4.72051 2.04957C4.62072 1.99966 4.51096 1.98968 4.39121 2.00964C4.12179 2.06953 3.95215 2.33903 4.01202 2.60854L5.7084 10.4342C5.80819 10.8634 6.1774 11.1828 6.62644 11.2127L16.8746 11.8915C16.9245 11.8915 16.9644 11.9314 16.9644 11.9813C16.9644 12.0412 16.9245 12.0811 16.8746 12.0911L6.62644 12.7799C6.18738 12.8098 5.80819 13.1292 5.71838 13.5684L4.022 21.394C4.00204 21.5038 4.01202 21.6236 4.06191 21.7234C4.18166 21.973 4.48102 22.0728 4.73049 21.943L23.73 12.4405C23.8298 12.3906 23.9096 12.3107 23.9495 12.2209C24.0692 11.9713 23.9695 11.6719 23.72 11.5521Z" fill="black"/>
</svg>
