<svg width="24" height="24" viewBox="0 0 24 24" fill="none" xmlns="http://www.w3.org/2000/svg">
<path d="M23 10.3077C23 15.4482 18.0751 19.6154 12 19.6154C11.4245 19.6154 10.8593 19.578 10.3077 19.5059C8.60212 19.2831 7.02589 18.7287 5.67384 17.9231C2.8469 16.2386 1 13.4557 1 10.3077C1 5.1672 5.92487 1 12 1C18.0751 1 23 5.1672 23 10.3077Z" fill="#171600"/>
<path d="M4.38462 23C5.06154 23 8.61538 20.6706 10.3077 19.5059C8.60212 19.2831 7.02589 18.7287 5.67384 17.9231C5.68984 18.2615 4.82102 21.4487 4.38462 23Z" fill="#171600"/>
</svg>
