<svg width="48" height="48" viewBox="0 0 48 48" fill="none" xmlns="http://www.w3.org/2000/svg">
<rect width="48" height="48" rx="16" fill="#F3F4F6"/>
<rect x="10.1279" y="15.0234" width="20.304" height="17.952" rx="2.4" fill="#E3E5E9"/>
<path fill-rule="evenodd" clip-rule="evenodd" d="M31.4717 21.6194C31.4717 21.1231 31.7273 20.6617 32.1481 20.3985L35.7917 18.1199C35.9799 18.0021 36.2068 17.9283 36.4463 17.9069C36.6858 17.8855 36.9282 17.9174 37.1456 17.9989C37.3629 18.0805 37.5464 18.2084 37.6748 18.3678C37.8033 18.5273 37.8715 18.7119 37.8717 18.9004V29.0492C37.8715 29.2377 37.8033 29.4223 37.6748 29.5817C37.5464 29.7412 37.3629 29.8691 37.1456 29.9507C36.9282 30.0322 36.6858 30.0641 36.4463 30.0427C36.2068 30.0213 35.9799 29.9475 35.7917 29.8297L32.1481 27.5511C31.7273 27.2879 31.4717 26.8265 31.4717 26.3302V21.6194Z" fill="#E3E5E9"/>
</svg>
