<svg width="25" height="24" viewBox="0 0 25 24" fill="none" xmlns="http://www.w3.org/2000/svg">
<g id="icon">
<path id="&#237;&#131;&#128;&#236;&#155;&#144; 3865" d="M17 10C17.8284 10 18.5 9.32848 18.5 8.50004C18.5 7.6716 17.8284 7 17 7C16.1716 7 15.5 7.6716 15.5 8.50004C15.5 9.32848 16.1716 10 17 10Z" fill="#5053E9" stroke="#5053E9"/>
<path id="Vector" d="M19.15 2.5H5.85C4.27599 2.5 3 3.77599 3 5.35V18.65C3 20.224 4.27599 21.5 5.85 21.5H19.15C20.724 21.5 22 20.224 22 18.65V5.35C22 3.77599 20.724 2.5 19.15 2.5Z" stroke="#5053E9" stroke-width="1.5" stroke-linejoin="round"/>
<path id="Vector 111" d="M6.74807 12.9281L3.66057 16.6331C3.23375 17.1453 3 17.7909 3 18.4576V18.8508C3 20.4248 4.27599 21.7008 5.85 21.7008H19.15C20.724 21.7008 22 20.4248 22 18.8508V18.6951C22 17.8871 21.6571 17.1172 21.0565 16.5767L18.8237 14.5671C17.916 13.7502 16.5503 13.7105 15.5968 14.4734C14.5362 15.3218 12.9917 15.1658 12.1222 14.1225L11.1269 12.9281C9.98751 11.5608 7.88748 11.5608 6.74807 12.9281Z" fill="#5053E9" stroke="#5053E9" stroke-width="1.5" stroke-linecap="round" stroke-linejoin="round"/>
</g>
</svg>
