<svg width="24" height="24" viewBox="0 0 24 24" fill="none" xmlns="http://www.w3.org/2000/svg">
<path d="M2.50892 6.20173C2.06794 5.12667 1.98205 3.71949 1.97795 2.83753C1.97638 2.50099 2.38041 2.3278 2.65135 2.52743C2.98768 2.77525 3.44282 3.07972 3.98962 3.37099C6.05522 4.47131 6.4212 4.52485 6.48604 4.50963C6.49521 4.50326 6.5 4.5 6.5 4.5C6.5 4.5 6.49988 4.50638 6.48604 4.50963C6.35767 4.59884 5.37084 5.29791 4.6446 6.20173C3.72898 7.34123 3.50057 8.49999 3.50057 8.49999C3.50057 8.49999 3.08946 7.61701 2.50892 6.20173Z" fill="black"/>
<path d="M3.50057 8.49999C3.50057 8.49999 3.08946 7.61701 2.50892 6.20173C2.06794 5.12667 1.98205 3.71949 1.97795 2.83753C1.97638 2.50099 2.38041 2.3278 2.65135 2.52743C2.98768 2.77525 3.44282 3.07972 3.98962 3.37099C6.49624 4.70623 6.5 4.5 6.5 4.5C6.5 4.5 5.42272 5.23334 4.6446 6.20173C3.72898 7.34123 3.50057 8.49999 3.50057 8.49999Z" stroke="black" stroke-width="1.25" stroke-linejoin="round"/>
<path d="M21.4916 6.20174C21.9554 5.07111 22.0461 3.68981 22.0554 2.89904C22.0588 2.60363 21.7447 2.42915 21.486 2.57185C21.1307 2.76781 20.6227 3.04513 20.0109 3.371C17.9177 4.48604 17.5695 4.5261 17.5116 4.50899C17.504 4.50304 17.5 4.5 17.5 4.5C17.5 4.5 17.5001 4.50561 17.5116 4.50899C17.622 4.59541 18.5034 5.2957 19.2315 6.20174C20.1471 7.34123 20.5 8.5 20.5 8.5C20.5 8.5 20.9111 7.61701 21.4916 6.20174Z" fill="black"/>
<path d="M20.5 8.5C20.5 8.5 20.9111 7.61701 21.4916 6.20174C21.9554 5.07111 22.0461 3.68981 22.0554 2.89904C22.0588 2.60363 21.7447 2.42915 21.486 2.57185C21.1307 2.76781 20.6227 3.04513 20.0109 3.371C17.5043 4.70624 17.5 4.5 17.5 4.5C17.5 4.5 18.4533 5.23335 19.2315 6.20174C20.1471 7.34123 20.5 8.5 20.5 8.5Z" stroke="black" stroke-width="1.25" stroke-linejoin="round"/>
<circle cx="12" cy="12" r="9.25" stroke="black" stroke-width="1.5"/>
<path fill-rule="evenodd" clip-rule="evenodd" d="M11.8865 7.01117C9.88644 7.1356 8.84127 8.26826 8.75 10.3165H10.7676C10.7929 9.60699 11.1889 9.07659 11.9262 8.99839C12.65 8.92156 13.3367 9.09395 13.5446 9.58878C13.7693 10.1233 13.265 10.7445 13.0252 11.0052C12.5814 11.4887 11.8606 11.8414 11.4869 12.363C11.1207 12.8742 11.0555 13.5467 11.0273 14.3698H12.8056C12.8305 13.8435 12.8655 13.3394 13.105 13.0124C13.4944 12.4809 14.0761 12.2319 14.5635 11.8122C15.0291 11.411 15.519 10.9275 15.6021 10.1792C15.8519 7.93946 14.0236 6.87779 11.8865 7.01117Z" fill="black"/>
<path d="M11.9313 17.3124C12.5513 17.3124 13.054 16.8174 13.054 16.2067C13.054 15.5961 12.5513 15.1011 11.9313 15.1011C11.3112 15.1011 10.8086 15.5961 10.8086 16.2067C10.8086 16.8174 11.3112 17.3124 11.9313 17.3124Z" fill="black"/>
</svg>
