<svg width="48" height="48" viewBox="0 0 48 48" fill="none" xmlns="http://www.w3.org/2000/svg">
<rect width="48" height="48" rx="16" fill="white"/>
<path fill-rule="evenodd" clip-rule="evenodd" d="M19.5192 10.6562C18.4036 10.6562 17.435 11.425 17.1818 12.5116L16.3824 15.9419H11.9039C10.5784 15.9419 9.50391 17.0164 9.50391 18.3419V33.8939C9.50391 35.2194 10.5784 36.2939 11.9039 36.2939H36.0959C37.4214 36.2939 38.4959 35.2194 38.4959 33.8939V18.3419C38.4959 17.0164 37.4214 15.9419 36.0959 15.9419H31.5816L30.7382 12.4871C30.4758 11.4124 29.5129 10.6562 28.4067 10.6562H19.5192Z" fill="#9899F9"/>
<circle cx="34.2243" cy="19.0564" r="1.488" fill="#C5C6FD"/>
<circle cx="23.9675" cy="25.2644" r="7.11397" fill="#C5C6FD"/>
<circle cx="23.9852" cy="25.2821" r="5.43051" fill="#F2F2FF"/>
</svg>
