<svg width="48" height="48" viewBox="0 0 48 48" fill="none" xmlns="http://www.w3.org/2000/svg">
<g clip-path="url(#clip0_4490_37615)">
<rect width="48" height="48" rx="16" fill="#F3F4F6"/>
<path d="M23.5871 19.725L21.0223 21.9179C21.3613 23.0237 21.8349 24.0879 22.4334 25.0889C23.0577 26.0825 23.8099 26.9979 24.6725 27.8136L27.9941 26.8384C29.8548 26.2917 31.8862 26.8532 33.1236 28.2569L35.0154 30.4025C35.7814 31.2638 36.1654 32.3754 36.0861 33.5018C36.0068 34.6283 35.4704 35.6811 34.5905 36.4371C31.5047 39.1205 27.3862 39.3895 23.829 36.7268C20.7012 34.3824 18.0557 31.5068 16.0261 28.2451C13.9913 24.9995 12.629 21.4119 12.013 17.677C11.3307 13.4746 13.9265 10.7499 17.952 9.6032C20.3524 8.91758 22.9141 10.0938 23.7949 12.2866L24.8338 14.8725C25.5161 16.5747 25.0261 18.4956 23.5871 19.725Z" fill="#DCDDFF"/>
<path d="M23.5871 19.725L21.0223 21.9179C21.3613 23.0237 21.8349 24.0879 22.4334 25.0889C23.0577 26.0825 23.8099 26.9979 24.6725 27.8136L27.9941 26.8384C29.8548 26.2917 31.8862 26.8532 33.1236 28.2569L35.0154 30.4025C35.7814 31.2638 36.1654 32.3754 36.0861 33.5018C36.0068 34.6283 35.4704 35.6811 34.5906 36.4371C31.5047 39.1205 27.3862 39.3895 23.829 36.7268C20.7012 34.3824 18.0557 31.5068 16.0261 28.2451C13.9913 24.9995 12.629 21.4119 12.013 17.677C11.3307 13.4746 13.9265 10.7499 17.952 9.6032C20.3524 8.91758 22.9141 10.0938 23.7949 12.2866L24.8338 14.8725C25.5161 16.5747 25.0261 18.4956 23.5871 19.725Z" fill="#E3E5E9"/>
</g>
<defs>
<clipPath id="clip0_4490_37615">
<rect width="48" height="48" rx="16" fill="white"/>
</clipPath>
</defs>
</svg>
