<svg width="24" height="25" viewBox="0 0 24 25" fill="none" xmlns="http://www.w3.org/2000/svg">
<path d="M16.436 6.54075C16.6558 6.54075 17.0305 6.57572 17.56 6.64566C18.0895 6.7156 18.669 6.91542 19.2984 7.24512C19.9378 7.56483 20.5173 8.09935 21.0368 8.84867C21.0069 8.87864 20.862 8.98854 20.6022 9.17837C20.3425 9.35821 20.0527 9.62797 19.733 9.98764C19.4133 10.3373 19.1336 10.7869 18.8938 11.3364C18.654 11.8759 18.5341 12.5204 18.5341 13.2697C18.5341 14.1289 18.684 14.8582 18.9837 15.4577C19.2934 16.0572 19.6481 16.5417 20.0477 16.9114C20.4574 17.2711 20.817 17.5358 21.1268 17.7057C21.4465 17.8755 21.6163 17.9654 21.6363 17.9754C21.6263 18.0154 21.4964 18.3701 21.2467 19.0395C21.0069 19.7089 20.6072 20.4532 20.0477 21.2725C19.5582 21.9818 19.0287 22.6362 18.4592 23.2357C17.8997 23.8351 17.2253 24.1349 16.436 24.1349C15.9065 24.1349 15.4719 24.0599 15.1322 23.9101C14.7925 23.7502 14.4428 23.5954 14.0831 23.4455C13.7234 23.2856 13.2389 23.2057 12.6294 23.2057C12.04 23.2057 11.5454 23.2856 11.1458 23.4455C10.7561 23.6054 10.3815 23.7652 10.0218 23.9251C9.6721 24.0849 9.25747 24.1649 8.77791 24.1649C8.04857 24.1649 7.40914 23.8751 6.85964 23.2956C6.31013 22.7162 5.74564 22.0218 5.16617 21.2125C4.49677 20.2534 3.92229 19.0844 3.44272 17.7057C2.97314 16.3169 2.73836 14.9182 2.73836 13.5095C2.73836 12.0008 3.0231 10.737 3.59259 9.71789C4.16207 8.68882 4.89141 7.91451 5.78061 7.39498C6.6798 6.86546 7.60896 6.6007 8.5681 6.6007C9.07764 6.6007 9.5572 6.68562 10.0068 6.85547C10.4564 7.01533 10.876 7.18018 11.2657 7.35002C11.6653 7.51987 12.025 7.60479 12.3447 7.60479C12.6544 7.60479 13.0141 7.51487 13.4237 7.33504C13.8333 7.1552 14.2929 6.98036 14.8025 6.81051C15.312 6.63067 15.8565 6.54075 16.436 6.54075ZM15.6117 4.63747C15.2221 5.10705 14.7325 5.50169 14.1431 5.8214C13.5536 6.13112 12.9941 6.28598 12.4646 6.28598C12.3547 6.28598 12.2498 6.27599 12.1499 6.25601C12.1399 6.22604 12.1299 6.17109 12.1199 6.09116C12.1099 6.01123 12.1049 5.92631 12.1049 5.83639C12.1049 5.23693 12.2348 4.65745 12.4946 4.09796C12.7543 3.52847 13.0491 3.0589 13.3788 2.68923C13.7984 2.18968 14.3279 1.77505 14.9673 1.44535C15.6067 1.11565 16.2162 0.940806 16.7957 0.920824C16.8256 1.05071 16.8406 1.20557 16.8406 1.38541C16.8406 1.98486 16.7257 2.56934 16.4959 3.13882C16.2662 3.69832 15.9714 4.19787 15.6117 4.63747Z" fill="white"/>
</svg>
